<svg id="Layer_3" enable-background="new 0 0 64 64" height="512" viewBox="0 0 64 64" width="512" xmlns="http://www.w3.org/2000/svg"><g><path d="m34 8v-6h-4v6" fill="#8892a0"/><path d="m46 18c0-5.523-4.477-10-10-10h-8c-5.523 0-10 4.477-10 10" fill="#c7e2fc"/><path d="m21 58h22v4h-22z" fill="#a1cdfb"/><path d="m45 18h-26c-3.314 0-6 2.686-6 6h38c0-3.314-2.686-6-6-6z" fill="#a1cdfb"/><path d="m49 24h-34l4 34h26z" fill="#c7e2fc"/><path d="m18.167 50.916c.605.051 1.215.084 1.833.084 12.15 0 22-10.074 22-22.5 0-1.541-.152-3.046-.441-4.5h-26.559z" fill="#ebf7fe"/><circle cx="32" cy="40" fill="#c16b3f" r="10"/><path d="m40 35c0-.355-.02-.706-.053-1.053-1.827-2.395-4.702-3.947-7.947-3.947-5.523 0-10 4.477-10 10 0 1.487.333 2.893.915 4.161 1.743 1.16 3.834 1.839 6.085 1.839 6.075 0 11-4.925 11-11z" fill="#e39854"/><g><path d="m32.99 35.141-1.98-.282.264-1.849c.49-3.427 3.47-6.01 6.931-6.01h.795v2h-.796c-2.472 0-4.601 1.846-4.95 4.293z" fill="#976947"/></g><g><path d="m32 36c-1.534 0-3.036-.622-4.121-1.707l-.586-.586 1.414-1.414.586.586c.713.712 1.699 1.121 2.707 1.121s1.994-.409 2.707-1.121l.586-.586 1.414 1.414-.586.586c-1.085 1.085-2.587 1.707-4.121 1.707z" fill="#c16b3f"/></g><g><path d="m29.666 46.602c-.863-.306-1.648-.771-2.333-1.384l1.334-1.49c.489.438 1.05.771 1.667.989z" fill="#fff"/></g><g><path d="m32 47v-2c2.757 0 5-2.243 5-5h2c0 3.86-3.141 7-7 7z" fill="#fff"/></g></g></svg>