<svg height="512" viewBox="0 0 42 60" width="512" xmlns="http://www.w3.org/2000/svg"><g id="Page-1" fill="none" fill-rule="evenodd"><g id="031---Cup-and-Straw" fill-rule="nonzero" transform="translate(-1)"><path id="Shape" d="m37.88 40.15-1.61 16.15c-.1538763 1.5310707-1.4412183 2.6974545-2.98 2.7h-22.58c-1.53878167-.0025455-2.82612373-1.1689293-2.98-2.7l-1.61-16.14c.72266087.5679011 1.62123891.8650686 2.54.84 3.34 0 3.34-3 6.67-3 1.89 0 2.71.97 3.67 1.8v11.2c0 .5522847.4477153 1 1 1h4c.5522847 0 1-.4477153 1-1v-11.21c.95-.83 1.77-1.79 3.66-1.79 3.33 0 3.33 3 6.67 3 .9232559.02365 1.8255853-.2771265 2.55-.85z" fill="#a4c2f7"/><path id="Shape" d="m35.33 41c-.177743-.0004529-.3553329-.0104673-.532-.03l-1.528 15.33c-.1538763 1.5310707-1.4412183 2.6974545-2.98 2.7h3c1.5387817-.0025455 2.8261237-1.1689293 2.98-2.7l1.61-16.15c-.7244147.5728735-1.6267441.87365-2.55.85z" fill="#7facfa"/><path id="Shape" d="m19 29v10.8c-.96-.83-1.78-1.8-3.67-1.8-3.33 0-3.33 3-6.67 3-.91876109.0250686-1.81733913-.2720989-2.54-.84l-1.12-11.16z" fill="#e8edfc"/><path id="Shape" d="m39 29-1.11 11.15h-.01c-.7244147.5728735-1.6267441.87365-2.55.85-3.34 0-3.34-3-6.67-3-1.89 0-2.71.96-3.66 1.79v-10.79z" fill="#e8edfc"/><path id="Shape" d="m36 29-1.11 11.15h-.01c-.3202959.2488845-.6754216.4493587-1.054.595.4804659.1750078.9886937.2614065 1.5.255.9232559.02365 1.8255853-.2771265 2.55-.85h.01l1.114-11.15z" fill="#cad9fc"/><path id="Shape" d="m42 26.5c.0021341.6636932-.2605727 1.3008186-.729877 1.770123-.4693044.4693043-1.1064298.7320111-1.770123.729877h-35c-1.38071187 0-2.5-1.1192881-2.5-2.5s1.11928813-2.5 2.5-2.5h35c1.3807119 0 2.5 1.1192881 2.5 2.5z" fill="#cad9fc"/><path id="Shape" d="m39 24h-14v-14.96c7.8759885.52623584 13.9965112 7.0664516 14 14.96z" fill="#e8edfc"/><path id="Shape" d="m25 9.04v.512c6.4964048 1.7974616 10.9960307 7.7075158 11 14.448h3c-.0034888-7.8935484-6.1240115-14.43376416-14-14.96z" fill="#cad9fc"/><path id="Shape" d="m19 9.04v14.96h-14c.00987406-7.8910235 6.1269537-14.42756009 14-14.96z" fill="#e8edfc"/><path id="Shape" d="m25 9.04v14.96h-6v-14.96c.33-.03.66-.04 1-.04h4c.34 0 .67.01 1 .04z" fill="#cad9fc"/><path id="Shape" d="m25 2v7.04c-.33-.03-.66-.04-1-.04h-4c-.34 0-.67.01-1 .04v-7.04c0-.55228475.4477153-1 1-1h4c.5522847 0 1 .44771525 1 1z" fill="#e8edfc"/><g fill="#cad9fc"><path id="Shape" d="m19 9.04c.33-.03.66-.04 1-.04h-1z"/><path id="Shape" d="m24 1h-3c.5522847 0 1 .44771525 1 1v7h2c.34 0 .67.01 1 .04v-7.04c0-.55228475-.4477153-1-1-1z"/><path id="Shape" d="m25 29v10.79c-.8014729.7891347-1.8853347 1.22484-3.01 1.21-1.1174749.0183043-2.1952271-.4142384-2.99-1.2v-10.8z"/><path id="Shape" d="m25 39.79v11.21c0 .5522847-.4477153 1-1 1h-4c-.5522847 0-1-.4477153-1-1v-11.2c.7947729.7857616 1.8725251 1.2183043 2.99 1.2 1.1246653.01484 2.2085271-.4208653 3.01-1.21z"/></g><path id="Shape" d="m2 26.5c0 1.3807119 1.11928813 2.5 2.5 2.5h.5c1.41 14.052.8 7.927 2.73 27.3.15387627 1.5310707 1.44121833 2.6974545 2.98 2.7h3c-1.5387817-.0025455-2.8261237-1.1689293-2.98-2.7-1.93-19.373-1.32-13.248-2.73-27.3h-.5c-1.38071187 0-2.5-1.1192881-2.5-2.5s1.11928813-2.5 2.5-2.5h.5c.00348876-7.8935484 6.1240115-14.43376416 14-14.96v-7.04c0-.55228475.4477153-1 1-1h-3c-.5522847 0-1 .44771525-1 1v7.04c-7.8759885.52623584-13.99651124 7.0664516-14 14.96h-.5c-.6636115-.001866-1.30058102.2609269-1.76982706.7301729-.46924605.4692461-.7320389 1.1062156-.73017294 1.7698271z" fill="#fff"/><path id="Rectangle-path" d="m4.397 28.98h2v8h-2z" fill="#fff" transform="matrix(.995 -.1 .1 .995 -3.255 .701)"/><path id="Shape" d="m5.418 33.98c-.55228475.0027614-1.00223858-.4427153-1.005-.995s.44271525-1.0022386.995-1.005h.01c.55228475 0 1 .4477153 1 1s-.44771525 1-1 1z" fill="#428dff"/><path id="Shape" d="m4.5 30h7.5c.5522847 0 1-.4477153 1-1s-.4477153-1-1-1h-7.5c-.82842712 0-1.5-.6715729-1.5-1.5s.67157288-1.5 1.5-1.5h35c.8284271 0 1.5.6715729 1.5 1.5s-.6715729 1.5-1.5 1.5h-23.5c-.5522847 0-1 .4477153-1 1s.4477153 1 1 1h2v7.723c-.8032104-.4898307-1.7293776-.7406243-2.67-.723-1.5189118.0054788-2.9674424.6410216-4 1.755-.6690501.7803102-1.6421903 1.2340778-2.67 1.245-.56085624.0186033-1.11553761-.1218004-1.6-.405l-.274-2.734c-.03572655-.3554793-.25838518-.6648958-.58410254-.8116953-.32571735-.1467995-.70500921-.1086797-.99500001.1s-.44662402.556216-.41089745.9116953l1.939 19.339c.19961623 2.0468942 1.92340446 3.6060996 3.98 3.6h22.57c2.0565955.0060996 3.7803838-1.5531058 3.98-3.6l2.644-26.439c1.752138-.1976521 3.0797615-1.674192 3.090729-3.4374089s-1.2981853-3.2561579-3.047729-3.4755911c-.4652825-7.6760143-6.3236696-13.93624175-13.952-14.909v-6.139c0-1.1045695-.8954305-2-2-2h-4c-1.1045695 0-2 .8954305-2 2v6.139c-7.6276296.97260917-13.48579241 7.2317572-13.952 14.907-1.82952753.2330504-3.16214504 1.8490216-3.0425199 3.6894491s1.65021773 3.2702941 3.4945199 3.2645509zm32.436 9.586c-.4844436.2894225-1.0420106.433154-1.606.414-1.028451-.0106087-2.0023301-.4643809-2.672-1.245-1.0324149-1.1141789-2.4810373-1.749762-4-1.755-.9361531-.0178531-1.8582808.2293187-2.66.713v-7.713h11.902zm-16.936 2.039c1.2864634.5034711 2.71607.4998971 4-.01v9.385h-4zm4-11.625v9.312c-1.1756164.9127161-2.8189285.9176461-4 .012v-9.324zm11.275 26.2c-.1000328 1.023334-.9617923 1.802815-1.99 1.8h-22.57c-1.0282077.002815-1.88996722-.776666-1.99-1.8l-1.438-14.383c.44780752.1202165.90933852.1817315 1.373.183 1.5222196-.0050857 2.9740486-.6417321 4.009-1.758.6595018-.7860064 1.6329646-1.2399554 2.659-1.2399554s1.9994982.453949 2.659 1.2399554l.013.008v10.75c0 1.1045695.8954305 2 2 2h4c1.1045695 0 2-.8954305 2-2v-10.762c.6600737-.7861173 1.634012-1.2400762 2.6605-1.2400762s2.0004263.4539589 2.6605 1.2400762c1.034253 1.1177458 2.4861745 1.7558814 4.009 1.762.4677659-.0009888.9332732-.0648951 1.384-.19zm-11.275-33.2h-4v-13h4zm13.965 0h-11.965v-12.841c6.5064103.944311 11.4820042 6.2841857 11.965 12.841zm-17.965-21h4v6h-4zm-2 8.159v12.841h-11.965c.48299578-6.5568143 5.4585897-11.896689 11.965-12.841z" fill="#428dff"/><path id="Shape" d="m15.531 13.9c-.1293995-.2315614-.3455008-.4022222-.6007485-.4744267-.2552477-.0722046-.5287255-.040036-.7602515.0894267-2.4371992 1.360367-4.32749944 3.5234868-5.349 6.121-.20158391.5144532.05204678 1.094916.56650001 1.2965.51445323.2015839 1.09491609-.0520468 1.29649999-.5665.8530405-2.1643874 2.4293795-3.9665235 4.461-5.1.2330814-.1292351.4049323-.3461647.4774046-.6026338.0724722-.2564692.0395694-.5312574-.0914046-.7633662z" fill="#428dff"/></g></g></svg>