<?xml version="1.0" encoding="iso-8859-1"?>
<!-- Generator: Adobe Illustrator 19.0.0, SVG Export Plug-In . SVG Version: 6.00 Build 0)  -->
<svg version="1.1" id="Capa_1" xmlns="http://www.w3.org/2000/svg" xmlns:xlink="http://www.w3.org/1999/xlink" x="0px" y="0px"
	 viewBox="0 0 512 512" style="enable-background:new 0 0 512 512;" xml:space="preserve">
<path style="fill:#1BC56E;" d="M428.852,109.67H83.148l49.31,385.11c0.712,5.557,5.441,9.72,11.044,9.72h224.995
	c5.603,0,10.333-4.163,11.044-9.72L428.852,109.67z"/>
<path style="opacity:0.15;enable-background:new    ;" d="M83.148,109.67l40.774,318.44h242.514l-8.537,66.67
	c-0.711,5.557-5.441,9.72-11.044,9.72h21.642c5.603,0,10.333-4.163,11.044-9.72l49.31-385.11L83.148,109.67L83.148,109.67z"/>
<path style="fill:#E3E3E3;" d="M476.226,60.235H35.774c-7.846,0-14.206-6.36-14.206-14.206V21.706
	c0-7.846,6.36-14.206,14.206-14.206h440.452c7.846,0,14.206,6.36,14.206,14.206v24.322
	C490.432,53.874,484.072,60.235,476.226,60.235z"/>
<path style="opacity:0.15;enable-background:new    ;" d="M476.226,7.5h-21.38c7.846,0,14.206,6.36,14.206,14.206v24.322
	c0,7.846-6.36,14.206-14.206,14.206h21.38c7.846,0,14.206-6.36,14.206-14.206V21.706C490.432,13.86,484.072,7.5,476.226,7.5z"/>
<path style="fill:#1BC56E;" d="M61.506,60.235l41.667,325.418c0.712,5.557,5.441,9.72,11.044,9.72h283.565
	c5.603,0,10.333-4.163,11.044-9.72l41.667-325.418L61.506,60.235L61.506,60.235z"/>
<path style="opacity:0.15;enable-background:new    ;" d="M61.506,60.235l3.242,25.319h354.8l-38.425,300.099
	c-0.711,5.557-5.441,9.72-11.044,9.72h27.705c5.603,0,10.333-4.163,11.044-9.72l41.667-325.418L61.506,60.235L61.506,60.235z"/>
<path style="opacity:0.2;enable-background:new    ;" d="M89.157,276.185h333.687l1.864-14.561H87.292L89.157,276.185z
	 M76.767,179.423l1.864,14.561h354.737l1.864-14.561H76.767z M83.894,235.084h344.212l1.864-14.561H82.03L83.894,235.084z"/>
<path d="M476.226,0h-346.19c-4.142,0-7.5,3.358-7.5,7.5s3.358,7.5,7.5,7.5h346.19c3.698,0,6.706,3.009,6.706,6.706v24.322
	c0,3.698-3.008,6.706-6.706,6.706H35.774c-3.698,0-6.707-3.008-6.707-6.706V21.706c0-3.698,3.008-6.706,6.707-6.706h61.118
	c4.142,0,7.5-3.358,7.5-7.5s-3.358-7.5-7.5-7.5H35.774C23.805,0,14.067,9.737,14.067,21.706v24.322
	c0,11.969,9.737,21.706,21.707,21.706h19.131l40.829,318.871c1.141,8.909,8.521,15.694,17.389,16.217l11.897,92.91
	c1.187,9.274,9.133,16.268,18.483,16.268h224.995c9.349,0,17.295-6.993,18.484-16.268l11.896-92.91
	c8.867-0.523,16.248-7.308,17.388-16.217l4.648-36.3c0.526-4.109-2.379-7.866-6.487-8.392c-4.116-0.519-7.866,2.379-8.392,6.487
	l-4.648,36.301c-0.231,1.809-1.781,3.172-3.605,3.172H114.217c-1.823,0-3.373-1.364-3.604-3.173L70.028,67.734h371.945
	l-32.897,256.922c-0.526,4.109,2.378,7.866,6.487,8.392c0.324,0.041,0.645,0.062,0.962,0.062c3.718,0,6.945-2.763,7.43-6.548
	l33.141-258.827h19.131c11.969,0,21.706-9.737,21.706-21.706V21.706C497.933,9.737,488.195,0,476.226,0z M383.748,402.873
	l-11.645,90.954c-0.232,1.809-1.782,3.173-3.605,3.173H143.502c-1.823,0-3.373-1.364-3.604-3.173l-11.646-90.954H383.748z"/>
<g>
</g>
<g>
</g>
<g>
</g>
<g>
</g>
<g>
</g>
<g>
</g>
<g>
</g>
<g>
</g>
<g>
</g>
<g>
</g>
<g>
</g>
<g>
</g>
<g>
</g>
<g>
</g>
<g>
</g>
</svg>
